<svg xmlns="http://www.w3.org/2000/svg" width="50" height="50" fill="none" viewBox="0 0 50 50">
    <g clip-path="url(#a)">
        <path fill="#fff" d="M24.51 50c13.536 0 24.51-11.193 24.51-25S38.046 0 24.51 0C10.973 0 0 11.193 0 25s10.973 25 24.51 25Z"/>
        <path fill="#000" d="M37.9 35.742c1.092 0 1.977-.899 1.977-2.008 0-1.108-.885-2.007-1.977-2.007s-1.977.899-1.977 2.007c0 1.11.885 2.008 1.977 2.008Z"/>
        <path fill="#85E105" fill-rule="evenodd" d="M24.402 15.797c5.147 5.409 8.247 8.392 9.663 9.697.078.072.557.58 1.077.766.285.102.879-.155.766.045-.422.754-3.209 1.695-3.892 1.741-2.535.17-3.367-1.762-5.022-3.624a.482.482 0 0 0-.46-.163.477.477 0 0 0-.372.319c-1.382 3.791-5.095 7.066-9.247 7.066-5.327 0-9.646-4.351-9.646-9.719 0-5.367 4.319-9.718 9.646-9.718a9.534 9.534 0 0 1 4.137.937 9.679 9.679 0 0 1 3.343 2.646l.007.007Zm-7.593.789c2.877 0 5.209 2.369 5.209 5.29 0 2.922-2.332 5.29-5.21 5.29-2.876 0-5.209-2.368-5.209-5.29 0-2.921 2.333-5.29 5.21-5.29Z" clip-rule="evenodd"/>
        <path fill="url(#b)" fill-rule="evenodd" d="M26.636 24.25v-6.125c3.828 3.959 6.232 6.264 7.43 7.368.077.072.556.58 1.076.766.285.102.88-.155.767.046-.422.753-3.21 1.694-3.892 1.74-2.536.171-3.368-1.762-5.023-3.624a.491.491 0 0 0-.358-.171Z" clip-rule="evenodd"/>
        <path fill="url(#c)" d="M16.951 12.207a9.534 9.534 0 0 1 5.117 1.501v8.212h-.05v-.044c0-2.907-2.31-5.268-5.168-5.29v-4.379h.101Z"/>
    </g>
    <defs>
        <linearGradient id="b" x1="26.636" x2="35.923" y1="23.09" y2="23.09" gradientUnits="userSpaceOnUse">
            <stop stop-color="#85E105"/>
            <stop offset=".203" stop-color="#389F05"/>
            <stop offset="1" stop-color="#85E105" stop-opacity=".886"/>
        </linearGradient>
        <linearGradient id="c" x1="16.85" x2="22.068" y1="17.063" y2="17.063" gradientUnits="userSpaceOnUse">
            <stop stop-color="#85E105"/>
            <stop offset=".245" stop-color="#0BA940"/>
            <stop offset=".693" stop-color="#05A643"/>
            <stop offset=".958" stop-color="#85E105"/>
        </linearGradient>
        <clipPath id="a">
            <path fill="#fff" d="M0 0h50v50H0z"/>
        </clipPath>
    </defs>
</svg>